<svg xmlns="http://www.w3.org/2000/svg" viewBox="0 0 707.11 707.11" width="707.11" height="707.11"><defs><style>.cls-1{fill:#ffe100;}.cls-2{fill:#de6500;}.cls-3{fill:#9ec364;}.cls-4{fill:#5960a4;}.cls-5{fill:#006eb6;}.cls-6{fill:#00aee0;}</style></defs><g><g><rect class="cls-1" x="553.19" y="111.24" width="25" height="25" transform="translate(78.19 436.24) rotate(-45)"/><rect class="cls-1" x="376.41" y="5.18" width="25" height="25" transform="translate(101.41 280.18) rotate(-45)"/><rect class="cls-1" x="288.02" y="22.86" width="25" height="25" transform="translate(63.02 222.86) rotate(-45)"/><rect class="cls-1" x="641.57" y="376.41" width="25" height="25" transform="translate(-83.43 576.41) rotate(-45)"/><rect class="cls-1" x="464.8" y="270.34" width="25" height="25" transform="translate(-60.2 420.34) rotate(-45)"/><rect class="cls-1" x="305.7" y="146.6" width="25" height="25" transform="translate(-19.3 271.6) rotate(-45)"/><rect class="cls-1" x="659.25" y="500.15" width="25" height="25" transform="translate(-165.75 625.15) rotate(-45)"/><rect class="cls-1" x="75.89" y="58.21" width="25" height="25" transform="translate(-24.11 83.21) rotate(-45)"/><rect class="cls-1" x="429.44" y="411.76" width="25" height="25" transform="translate(-170.56 436.76) rotate(-45)"/><rect class="cls-1" x="252.67" y="305.7" width="25" height="25" transform="translate(-147.33 280.7) rotate(-45)"/><rect class="cls-1" x="606.22" y="659.25" width="25" height="25" transform="translate(-293.78 634.25) rotate(-45)"/><rect class="cls-1" x="22.86" y="217.31" width="25" height="25" transform="translate(-152.14 92.31) rotate(-45)"/><rect class="cls-1" x="376.41" y="570.86" width="25" height="25" transform="translate(-298.59 445.86) rotate(-45)"/><rect class="cls-1" x="199.63" y="464.8" width="25" height="25" transform="translate(-275.37 289.8) rotate(-45)"/><rect class="cls-1" x="22.86" y="358.73" width="25" height="25" transform="translate(-252.14 133.73) rotate(-45)"/><rect class="cls-1" x="111.24" y="623.9" width="25" height="25" transform="translate(-413.76 273.9) rotate(-45)"/><polygon class="cls-2" points="707.11 35.35 689.43 53.03 707.11 70.71 707.11 35.35"/><rect class="cls-2" x="570.86" y="22.86" width="25" height="25" transform="translate(145.86 422.86) rotate(-45)"/><rect class="cls-2" x="570.86" y="58.21" width="25" height="25" transform="translate(120.86 433.21) rotate(-45)"/><polygon class="cls-2" points="459.62 0 494.98 35.35 512.65 17.68 494.98 0 459.62 0"/><rect class="cls-2" x="606.22" y="128.92" width="25" height="25" transform="translate(81.22 478.92) rotate(-45)"/><rect class="cls-2" x="620.23" y="173.12" width="50" height="25" transform="translate(57.73 510.62) rotate(-45)"/><polygon class="cls-2" points="707.11 247.49 707.11 212.13 689.43 194.45 671.75 212.13 707.11 247.49"/><rect class="cls-2" x="425.78" y="49.37" width="50" height="25" transform="translate(88.28 336.87) rotate(-45)"/><rect class="cls-2" x="394.09" y="22.86" width="25" height="25" transform="translate(94.09 297.86) rotate(-45)"/><rect class="cls-2" x="464.8" y="93.57" width="25" height="25" transform="translate(64.8 368.57) rotate(-45)"/><rect class="cls-2" x="570.86" y="174.63" width="25" height="75" transform="translate(20.86 474.63) rotate(-45)"/><rect class="cls-2" x="372.75" y="67.05" width="50" height="25" transform="translate(60.25 304.55) rotate(-45)"/><polygon class="cls-2" points="353.55 0 318.2 0 300.52 17.68 318.2 35.35 353.55 0"/><polygon class="cls-2" points="512.65 194.45 494.98 176.78 441.94 229.81 477.3 265.17 494.98 247.49 477.3 229.81 512.65 194.45"/><rect class="cls-2" x="606.22" y="280.7" width="25" height="75" transform="translate(-43.78 530.7) rotate(-45)"/><rect class="cls-2" x="655.59" y="349.89" width="50" height="25" transform="translate(-56.91 587.39) rotate(-45)"/><rect class="cls-2" x="296.86" y="54.55" width="25" height="50" transform="translate(34.36 242.05) rotate(-45)"/><rect class="cls-2" x="341.05" y="111.24" width="25" height="25" transform="translate(16.05 286.24) rotate(-45)"/><rect class="cls-2" x="650.41" y="408.1" width="25" height="50" transform="translate(-112.09 595.6) rotate(-45)"/><polygon class="cls-2" points="707.11 459.62 689.43 477.3 707.11 494.98 707.11 459.62"/><polygon class="cls-2" points="494.98 318.2 477.3 300.52 441.94 335.88 477.3 371.23 494.98 353.55 477.3 335.88 494.98 318.2"/><polygon class="cls-2" points="123.74 17.68 141.42 0 106.07 0 123.74 17.68"/><polygon class="cls-2" points="176.78 35.35 159.1 17.68 123.74 53.03 159.1 88.39 176.78 70.71 159.1 53.03 176.78 35.35"/><rect class="cls-2" x="199.63" y="75.89" width="25" height="25" transform="translate(-0.37 175.89) rotate(-45)"/><polygon class="cls-2" points="265.17 229.81 212.13 176.78 159.1 229.81 176.78 247.49 212.13 212.13 247.49 247.49 212.13 282.84 229.81 300.52 335.88 194.45 318.2 176.78 265.17 229.81"/><rect class="cls-2" x="349.89" y="213.65" width="25" height="50" transform="translate(-62.61 326.15) rotate(-45)"/><rect class="cls-2" x="553.19" y="429.44" width="25" height="25" transform="translate(-146.81 529.44) rotate(-45)"/><polygon class="cls-2" points="618.72 583.36 565.68 530.33 512.65 583.36 530.33 601.04 565.68 565.68 601.04 601.04 565.68 636.4 583.36 654.07 689.43 548.01 671.75 530.33 618.72 583.36"/><polygon class="cls-2" points="707.11 565.68 689.43 583.36 707.11 601.04 707.11 565.68"/><polygon class="cls-2" points="512.65 441.94 530.33 424.26 512.65 406.59 530.33 388.91 512.65 371.23 477.3 406.59 512.65 441.94"/><polygon class="cls-2" points="194.45 123.74 176.78 106.07 123.74 159.1 159.1 194.45 176.78 176.78 159.1 159.1 194.45 123.74"/><polygon class="cls-2" points="548.01 477.3 530.33 459.62 477.3 512.65 512.65 548.01 530.33 530.33 512.65 512.65 548.01 477.3"/><polygon class="cls-2" points="35.35 70.71 0 35.35 0 70.71 35.35 106.07 70.71 70.71 53.03 53.03 35.35 70.71"/><polygon class="cls-2" points="388.91 424.26 353.55 388.91 335.88 406.59 388.91 459.62 424.26 424.26 406.59 406.59 388.91 424.26"/><rect class="cls-2" x="15.53" y="164.28" width="75" height="25" transform="translate(-109.47 89.28) rotate(-45)"/><rect class="cls-2" x="369.09" y="517.83" width="75" height="25" transform="translate(-255.91 442.83) rotate(-45)"/><rect class="cls-2" x="128.92" y="252.67" width="25" height="25" transform="translate(-146.08 177.67) rotate(-45)"/><rect class="cls-2" x="482.47" y="606.22" width="25" height="25" transform="translate(-292.53 531.22) rotate(-45)"/><rect class="cls-2" x="217.31" y="376.41" width="25" height="25" transform="translate(-207.69 276.41) rotate(-45)"/><rect class="cls-2" x="217.31" y="411.76" width="25" height="25" transform="translate(-232.69 286.76) rotate(-45)"/><polygon class="cls-2" points="0 247.49 17.68 229.81 0 212.13 0 247.49"/><rect class="cls-2" x="111.24" y="316.05" width="25" height="75" transform="translate(-213.76 191.05) rotate(-45)"/><rect class="cls-2" x="252.67" y="482.47" width="25" height="25" transform="translate(-272.33 332.47) rotate(-45)"/><rect class="cls-2" x="266.68" y="526.67" width="50" height="25" transform="translate(-295.82 364.17) rotate(-45)"/><rect class="cls-2" x="332.21" y="549.52" width="25" height="50" transform="translate(-305.29 412.02) rotate(-45)"/><polygon class="cls-2" points="459.62 671.75 441.94 689.43 459.62 707.11 494.98 707.11 459.62 671.75"/><rect class="cls-2" x="72.23" y="402.93" width="50" height="25" transform="translate(-265.27 190.43) rotate(-45)"/><rect class="cls-2" x="40.53" y="376.41" width="25" height="25" transform="translate(-259.47 151.41) rotate(-45)"/><rect class="cls-2" x="111.24" y="447.12" width="25" height="25" transform="translate(-288.76 222.12) rotate(-45)"/><rect class="cls-2" x="217.31" y="528.19" width="25" height="75" transform="translate(-332.69 328.19) rotate(-45)"/><rect class="cls-2" x="19.19" y="420.6" width="50" height="25" transform="translate(-293.31 158.1) rotate(-45)"/><polygon class="cls-2" points="318.2 707.11 353.55 707.11 335.88 689.43 318.2 707.11"/><rect class="cls-2" x="252.67" y="634.25" width="25" height="75" transform="translate(-397.33 384.25) rotate(-45)"/><polygon class="cls-2" points="159.1 548.01 141.42 530.33 88.39 583.36 123.74 618.72 141.42 601.04 123.74 583.36 159.1 548.01"/><polygon class="cls-2" points="0 494.98 17.68 477.3 0 459.62 0 494.98"/><polygon class="cls-2" points="141.42 671.75 123.74 654.07 88.39 689.43 106.07 707.11 141.42 707.11 123.74 689.43 141.42 671.75"/><polygon class="cls-2" points="0 565.68 0 601.04 17.68 618.72 35.35 601.04 0 565.68"/><polygon class="cls-3" points="707.11 106.07 707.11 70.71 689.43 53.03 671.75 70.71 707.11 106.07"/><polygon class="cls-3" points="671.75 0 636.4 0 583.36 53.03 601.04 70.71 671.75 0"/><rect class="cls-3" x="632.73" y="72.23" width="25" height="50" transform="translate(120.23 484.73) rotate(-45)"/><rect class="cls-3" x="676.93" y="128.92" width="25" height="25" transform="translate(101.93 528.92) rotate(-45)"/><polygon class="cls-3" points="477.3 88.39 494.98 106.07 583.36 17.68 565.68 0 530.33 0 548.01 17.68 477.3 88.39"/><polygon class="cls-3" points="707.11 176.78 689.43 194.45 707.11 212.13 707.11 176.78"/><rect class="cls-3" x="579.7" y="89.9" width="25" height="50" transform="translate(92.2 452.4) rotate(-45)"/><rect class="cls-3" x="588.54" y="146.6" width="25" height="25" transform="translate(63.54 471.6) rotate(-45)"/><rect class="cls-3" x="535.51" y="128.92" width="25" height="25" transform="translate(60.51 428.92) rotate(-45)"/><rect class="cls-3" x="376.41" y="40.53" width="25" height="25" transform="translate(76.41 290.53) rotate(-45)"/><rect class="cls-3" x="411.76" y="75.89" width="25" height="25" transform="translate(61.76 325.89) rotate(-45)"/><polygon class="cls-3" points="318.2 0 282.84 0 265.17 17.68 247.49 0 229.81 17.68 282.84 70.71 300.52 53.03 282.84 35.35 318.2 0"/><rect class="cls-3" x="500.15" y="234.99" width="25" height="25" transform="translate(-24.85 434.99) rotate(-45)"/><polygon class="cls-3" points="707.11 318.2 707.11 282.84 671.75 318.2 601.04 247.49 583.36 265.17 654.07 335.88 618.72 371.23 601.04 353.55 583.36 371.23 636.4 424.26 654.07 406.59 636.4 388.91 707.11 318.2"/><polygon class="cls-3" points="441.94 229.81 459.62 212.13 424.26 176.78 477.3 123.74 459.62 106.07 406.59 159.1 371.23 123.74 353.55 141.42 441.94 229.81"/><rect class="cls-3" x="323.38" y="164.28" width="25" height="25" transform="translate(-26.62 289.28) rotate(-45)"/><rect class="cls-3" x="358.73" y="199.63" width="25" height="25" transform="translate(-41.27 324.63) rotate(-45)"/><rect class="cls-3" x="344.09" y="270.34" width="125" height="25" transform="translate(-80.91 370.34) rotate(-45)"/><rect class="cls-3" x="482.47" y="323.38" width="25" height="25" transform="translate(-92.53 448.38) rotate(-45)"/><rect class="cls-3" x="676.93" y="517.83" width="25" height="25" transform="translate(-173.07 642.83) rotate(-45)"/><rect class="cls-3" x="164.28" y="40.53" width="25" height="25" transform="translate(14.28 140.53) rotate(-45)"/><rect class="cls-3" x="517.83" y="394.09" width="25" height="25" transform="translate(-132.17 494.09) rotate(-45)"/><rect class="cls-3" x="280.7" y="252.67" width="75" height="25" transform="translate(-94.3 302.67) rotate(-45)"/><rect class="cls-3" x="404.44" y="376.41" width="75" height="25" transform="translate(-145.56 426.41) rotate(-45)"/><rect class="cls-3" x="634.25" y="606.22" width="75" height="25" transform="translate(-240.75 656.22) rotate(-45)"/><rect class="cls-3" x="50.89" y="22.86" width="75" height="25" transform="translate(0.89 72.86) rotate(-45)"/><rect class="cls-3" x="111.24" y="93.57" width="25" height="25" transform="translate(-38.76 118.57) rotate(-45)"/><rect class="cls-3" x="464.8" y="447.12" width="25" height="25" transform="translate(-185.2 472.12) rotate(-45)"/><rect class="cls-3" x="224" y="367.57" width="100" height="25" transform="translate(-188.5 305.07) rotate(-45)"/><polygon class="cls-3" points="654.07 689.43 636.4 707.11 671.75 707.11 654.07 689.43"/><polygon class="cls-3" points="388.91 494.98 335.88 548.01 371.23 583.36 388.91 565.68 371.23 548.01 424.26 494.98 335.88 406.59 318.2 424.26 388.91 494.98"/><polygon class="cls-3" points="70.71 141.42 0 70.71 0 106.07 35.35 141.42 0 176.78 0 212.13 17.68 229.81 35.35 212.13 17.68 194.45 70.71 141.42"/><polygon class="cls-3" points="194.45 371.23 123.74 441.94 141.42 459.62 229.81 371.23 176.78 318.2 229.81 265.17 194.45 229.81 176.78 247.49 194.45 265.17 159.1 300.52 141.42 282.84 123.74 300.52 194.45 371.23"/><rect class="cls-3" x="279.18" y="425.78" width="25" height="50" transform="translate(-233.32 338.28) rotate(-45)"/><rect class="cls-3" x="323.38" y="482.47" width="25" height="25" transform="translate(-251.62 382.47) rotate(-45)"/><polygon class="cls-3" points="530.33 671.75 583.36 618.72 548.01 583.36 530.33 601.04 548.01 618.72 512.65 654.07 494.98 636.4 477.3 654.07 530.33 707.11 565.68 707.11 530.33 671.75"/><polygon class="cls-3" points="0 282.84 0 318.2 70.71 247.49 53.03 229.81 0 282.84"/><polygon class="cls-3" points="318.2 671.75 247.49 601.04 229.81 618.72 300.52 689.43 282.84 707.11 318.2 707.11 424.26 601.04 406.59 583.36 318.2 671.75"/><rect class="cls-3" x="226.15" y="443.46" width="25" height="50" transform="translate(-261.35 305.96) rotate(-45)"/><rect class="cls-3" x="234.99" y="500.15" width="25" height="25" transform="translate(-290.01 325.15) rotate(-45)"/><rect class="cls-3" x="181.95" y="482.47" width="25" height="25" transform="translate(-293.05 282.47) rotate(-45)"/><rect class="cls-3" x="22.86" y="394.09" width="25" height="25" transform="translate(-277.14 144.09) rotate(-45)"/><rect class="cls-3" x="58.21" y="429.44" width="25" height="25" transform="translate(-291.79 179.44) rotate(-45)"/><rect class="cls-3" x="146.6" y="588.54" width="25" height="25" transform="translate(-378.4 288.54) rotate(-45)"/><polygon class="cls-3" points="70.71 530.33 123.74 477.3 106.07 459.62 53.03 512.65 17.68 477.3 0 494.98 88.39 583.36 106.07 565.68 70.71 530.33"/><rect class="cls-3" x="-9.47" y="623.9" width="125" height="25" transform="translate(-434.47 223.9) rotate(-45)"/><rect class="cls-3" x="5.18" y="553.19" width="25" height="25" transform="translate(-394.82 178.19) rotate(-45)"/><rect class="cls-3" x="128.92" y="676.93" width="25" height="25" transform="translate(-446.08 301.93) rotate(-45)"/><polygon class="cls-4" points="636.4 70.71 671.75 106.07 601.04 176.78 618.72 194.45 707.11 106.07 654.07 53.03 689.43 17.68 671.75 0 583.36 88.39 601.04 106.07 636.4 70.71"/><polygon class="cls-4" points="477.3 53.03 494.98 35.35 459.62 0 424.26 0 477.3 53.03"/><polygon class="cls-4" points="707.11 282.84 707.11 247.49 671.75 212.13 654.07 229.81 707.11 282.84"/><polygon class="cls-4" points="707.11 318.2 689.43 335.88 707.11 353.55 707.11 318.2"/><rect class="cls-4" x="349.89" y="1.52" width="25" height="50" transform="translate(87.39 264.02) rotate(-45)"/><polygon class="cls-4" points="707.11 388.91 707.11 353.55 689.43 371.23 707.11 388.91"/><rect class="cls-4" x="394.09" y="93.57" width="25" height="25" transform="translate(44.09 318.57) rotate(-45)"/><rect class="cls-4" x="438.28" y="160.62" width="25" height="50" transform="translate(0.78 373.12) rotate(-45)"/><rect class="cls-4" x="482.47" y="217.31" width="25" height="25" transform="translate(-17.53 417.31) rotate(-45)"/><rect class="cls-4" x="526.67" y="249" width="25" height="50" transform="translate(-35.83 461.5) rotate(-45)"/><polygon class="cls-4" points="247.49 0 212.13 0 229.81 17.68 247.49 0"/><polygon class="cls-4" points="565.68 353.55 583.36 371.23 618.72 335.88 583.36 300.52 565.68 318.2 583.36 335.88 565.68 353.55"/><polygon class="cls-4" points="406.59 229.81 335.88 300.52 353.55 318.2 441.94 229.81 388.91 176.78 371.23 194.45 406.59 229.81"/><polygon class="cls-4" points="194.45 53.03 212.13 35.35 176.78 0 141.42 0 194.45 53.03"/><rect class="cls-4" x="517.83" y="333.73" width="25" height="75" transform="translate(-107.17 483.73) rotate(-45)"/><polygon class="cls-4" points="212.13 106.07 229.81 123.74 212.13 141.42 194.45 123.74 159.1 159.1 176.78 176.78 141.42 212.13 159.1 229.81 247.49 141.42 300.52 194.45 318.2 176.78 247.49 106.07 265.17 88.39 229.81 53.03 212.13 70.71 229.81 88.39 212.13 106.07"/><polygon class="cls-4" points="601.04 459.62 618.72 441.94 583.36 406.59 565.68 424.26 583.36 441.94 565.68 459.62 583.36 477.3 565.68 494.98 548.01 477.3 512.65 512.65 530.33 530.33 494.98 565.68 512.65 583.36 601.04 494.98 654.07 548.01 671.75 530.33 601.04 459.62"/><polygon class="cls-4" points="35.35 0 70.71 35.35 88.39 17.68 70.71 0 35.35 0"/><rect class="cls-4" x="93.57" y="40.53" width="25" height="25" transform="translate(-6.43 90.53) rotate(-45)"/><rect class="cls-4" x="128.92" y="75.89" width="25" height="25" transform="translate(-21.08 125.89) rotate(-45)"/><polygon class="cls-4" points="424.26 388.91 441.94 371.23 424.26 353.55 477.3 300.52 441.94 265.17 424.26 282.84 441.94 300.52 388.91 353.55 424.26 388.91"/><rect class="cls-4" x="447.12" y="394.09" width="25" height="25" transform="translate(-152.88 444.09) rotate(-45)"/><rect class="cls-4" x="482.47" y="429.44" width="25" height="25" transform="translate(-167.53 479.44) rotate(-45)"/><polygon class="cls-4" points="707.11 636.4 689.43 654.07 707.11 671.75 707.11 636.4"/><rect class="cls-4" x="5.18" y="22.86" width="25" height="25" transform="translate(-19.82 22.86) rotate(-45)"/><rect class="cls-4" x="261.5" y="266.68" width="25" height="50" transform="translate(-126 279.18) rotate(-45)"/><rect class="cls-4" x="358.73" y="376.41" width="25" height="25" transform="translate(-166.27 376.41) rotate(-45)"/><rect class="cls-4" x="615.06" y="620.23" width="25" height="50" transform="translate(-272.44 632.73) rotate(-45)"/><rect class="cls-4" x="36.87" y="190.79" width="50" height="25" transform="translate(-125.63 103.29) rotate(-45)"/><rect class="cls-4" x="111.24" y="234.99" width="25" height="25" transform="translate(-138.76 159.99) rotate(-45)"/><rect class="cls-4" x="390.43" y="544.35" width="50" height="25" transform="translate(-272.07 456.85) rotate(-45)"/><rect class="cls-4" x="464.8" y="588.54" width="25" height="25" transform="translate(-285.2 513.54) rotate(-45)"/><rect class="cls-4" x="111.24" y="270.34" width="25" height="25" transform="translate(-163.76 170.34) rotate(-45)"/><rect class="cls-4" x="464.8" y="623.9" width="25" height="25" transform="translate(-310.2 523.9) rotate(-45)"/><polygon class="cls-4" points="282.84 424.26 318.2 459.62 247.49 530.33 265.17 548.01 353.55 459.62 300.52 406.59 335.88 371.23 318.2 353.55 229.81 441.94 247.49 459.62 282.84 424.26"/><polygon class="cls-4" points="459.62 671.75 441.94 654.07 406.59 689.43 424.26 707.11 459.62 707.11 441.94 689.43 459.62 671.75"/><polygon class="cls-4" points="0 282.84 17.68 265.17 0 247.49 0 282.84"/><polygon class="cls-4" points="88.39 335.88 106.07 318.2 88.39 300.52 53.03 335.88 123.74 406.59 141.42 388.91 88.39 335.88"/><rect class="cls-4" x="323.38" y="563.54" width="25" height="75" transform="translate(-326.62 413.54) rotate(-45)"/><rect class="cls-4" x="333.73" y="659.25" width="75" height="25" transform="translate(-366.27 459.25) rotate(-45)"/><polygon class="cls-4" points="53.03 300.52 35.35 282.84 0 318.2 0 353.55 53.03 300.52"/><polygon class="cls-4" points="0 353.55 0 388.91 17.68 406.59 35.35 388.91 0 353.55"/><rect class="cls-4" x="40.53" y="447.12" width="25" height="25" transform="translate(-309.47 172.12) rotate(-45)"/><rect class="cls-4" x="84.73" y="514.17" width="25" height="50" transform="translate(-352.77 226.67) rotate(-45)"/><rect class="cls-4" x="128.92" y="570.86" width="25" height="25" transform="translate(-371.08 270.86) rotate(-45)"/><rect class="cls-4" x="173.12" y="602.56" width="25" height="50" transform="translate(-389.38 315.06) rotate(-45)"/><polygon class="cls-4" points="229.81 654.07 212.13 671.75 229.81 689.43 212.13 707.11 247.49 707.11 265.17 689.43 229.81 654.07"/><polygon class="cls-4" points="35.35 530.33 17.68 548.01 53.03 583.36 0 636.4 0 671.75 88.39 583.36 35.35 530.33"/><polygon class="cls-4" points="88.39 618.72 70.71 636.4 88.39 654.07 35.35 707.11 70.71 707.11 123.74 654.07 88.39 618.72"/><polygon class="cls-4" points="141.42 707.11 176.78 707.11 159.1 689.43 141.42 707.11"/><rect class="cls-5" x="655.59" y="31.69" width="50" height="25" transform="translate(168.09 494.19) rotate(-45)"/><polygon class="cls-5" points="707.11 106.07 689.43 123.74 707.11 141.42 707.11 106.07"/><rect class="cls-5" x="615.06" y="89.9" width="25" height="50" transform="translate(102.56 477.4) rotate(-45)"/><polygon class="cls-5" points="441.94 88.39 459.62 106.07 548.01 17.68 530.33 0 494.98 0 512.65 17.68 441.94 88.39"/><polygon class="cls-5" points="636.4 212.13 601.04 176.78 583.36 194.45 671.75 282.84 654.07 300.52 671.75 318.2 707.11 282.84 654.07 229.81 707.11 176.78 671.75 141.42 654.07 159.1 671.75 176.78 636.4 212.13"/><polygon class="cls-5" points="477.3 194.45 494.98 176.78 477.3 159.1 494.98 141.42 548.01 194.45 601.04 141.42 583.36 123.74 548.01 159.1 512.65 123.74 583.36 53.03 565.68 35.35 441.94 159.1 477.3 194.45"/><polygon class="cls-5" points="689.43 371.23 671.75 388.91 707.11 424.26 707.11 388.91 689.43 371.23"/><polygon class="cls-5" points="282.84 0 247.49 0 265.17 17.68 282.84 0"/><rect class="cls-5" x="606.22" y="341.05" width="25" height="25" transform="translate(-68.78 541.05) rotate(-45)"/><polygon class="cls-5" points="353.55 176.78 265.17 265.17 282.84 282.84 388.91 176.78 335.88 123.74 388.91 70.71 335.88 17.68 318.2 35.35 353.55 70.71 318.2 106.07 282.84 70.71 265.17 88.39 353.55 176.78"/><rect class="cls-5" x="447.12" y="252.67" width="25" height="25" transform="translate(-52.88 402.67) rotate(-45)"/><polygon class="cls-5" points="707.11 530.33 707.11 494.98 689.43 477.3 707.11 459.62 707.11 424.26 671.75 459.62 636.4 424.26 618.72 441.94 707.11 530.33"/><rect class="cls-5" x="376.41" y="217.31" width="25" height="25" transform="translate(-48.59 342.31) rotate(-45)"/><rect class="cls-5" x="107.58" y="14.02" width="50" height="25" transform="translate(20.08 101.52) rotate(-45)"/><polygon class="cls-5" points="176.78 70.71 194.45 88.39 247.49 35.35 212.13 0 176.78 0 212.13 35.35 176.78 70.71"/><rect class="cls-5" x="461.14" y="367.57" width="50" height="25" transform="translate(-126.36 455.07) rotate(-45)"/><polygon class="cls-5" points="530.33 424.26 548.01 441.94 601.04 388.91 548.01 335.88 601.04 282.84 512.65 194.45 494.98 212.13 565.68 282.84 530.33 318.2 494.98 282.84 477.3 300.52 565.68 388.91 530.33 424.26"/><polygon class="cls-5" points="618.72 618.72 636.4 636.4 707.11 565.68 707.11 530.33 618.72 618.72"/><polygon class="cls-5" points="106.07 0 70.71 0 88.39 17.68 106.07 0"/><rect class="cls-5" x="341.05" y="252.67" width="25" height="25" transform="translate(-83.95 327.67) rotate(-45)"/><rect class="cls-5" x="429.44" y="341.05" width="25" height="25" transform="translate(-120.56 416.05) rotate(-45)"/><polygon class="cls-5" points="707.11 601.04 689.43 618.72 707.11 636.4 707.11 601.04"/><polygon class="cls-5" points="300.52 194.45 247.49 141.42 229.81 159.1 265.17 194.45 247.49 212.13 265.17 229.81 300.52 194.45"/><polygon class="cls-5" points="654.07 548.01 601.04 494.98 583.36 512.65 618.72 548.01 601.04 565.68 618.72 583.36 654.07 548.01"/><rect class="cls-5" x="31.69" y="1.52" width="25" height="50" transform="translate(-5.81 39.02) rotate(-45)"/><rect class="cls-5" x="332.21" y="302.04" width="25" height="50" transform="translate(-130.29 339.54) rotate(-45)"/><rect class="cls-5" x="385.25" y="355.07" width="25" height="50" transform="translate(-152.25 392.57) rotate(-45)"/><polygon class="cls-5" points="406.59 477.3 441.94 512.65 459.62 494.98 441.94 477.3 494.98 424.26 477.3 406.59 406.59 477.3"/><polygon class="cls-5" points="707.11 671.75 689.43 654.07 671.75 671.75 707.11 707.11 707.11 671.75"/><polygon class="cls-5" points="141.42 70.71 123.74 53.03 53.03 123.74 88.39 159.1 106.07 141.42 88.39 123.74 141.42 70.71"/><rect class="cls-5" x="208.47" y="213.65" width="25" height="50" transform="translate(-104.03 226.15) rotate(-45)"/><rect class="cls-5" x="562.02" y="567.2" width="25" height="50" transform="translate(-250.48 579.7) rotate(-45)"/><polygon class="cls-5" points="123.74 159.1 53.03 229.81 88.39 265.17 106.07 247.49 88.39 229.81 123.74 194.45 141.42 212.13 159.1 194.45 123.74 159.1"/><rect class="cls-5" x="302.04" y="385.25" width="50" height="25" transform="translate(-185.46 347.75) rotate(-45)"/><polygon class="cls-5" points="477.3 512.65 406.59 583.36 441.94 618.72 459.62 601.04 441.94 583.36 477.3 548.01 494.98 565.68 512.65 548.01 477.3 512.65"/><polygon class="cls-5" points="618.72 654.07 601.04 636.4 583.36 654.07 565.68 636.4 548.01 654.07 601.04 707.11 618.72 689.43 601.04 671.75 618.72 654.07"/><polygon class="cls-5" points="159.1 265.17 141.42 282.84 159.1 300.52 194.45 265.17 141.42 212.13 123.74 229.81 159.1 265.17"/><polygon class="cls-5" points="265.17 335.88 247.49 318.2 265.17 300.52 247.49 282.84 229.81 300.52 212.13 282.84 194.45 300.52 247.49 353.55 265.17 335.88"/><polygon class="cls-5" points="512.65 618.72 494.98 636.4 512.65 654.07 548.01 618.72 494.98 565.68 477.3 583.36 512.65 618.72"/><polygon class="cls-5" points="0 106.07 0 141.42 17.68 159.1 35.35 141.42 0 106.07"/><rect class="cls-5" x="349.89" y="461.14" width="25" height="50" transform="translate(-237.61 398.64) rotate(-45)"/><polygon class="cls-5" points="106.07 282.84 88.39 300.52 159.1 371.23 88.39 441.94 106.07 459.62 194.45 371.23 106.07 282.84"/><rect class="cls-5" x="261.5" y="443.46" width="25" height="50" transform="translate(-251 330.96) rotate(-45)"/><polygon class="cls-5" points="459.62 636.4 441.94 654.07 494.98 707.11 530.33 707.11 459.62 636.4"/><polygon class="cls-5" points="300.52 583.36 353.55 530.33 318.2 494.98 300.52 512.65 318.2 530.33 282.84 565.68 247.49 530.33 229.81 548.01 318.2 636.4 300.52 654.07 318.2 671.75 353.55 636.4 300.52 583.36"/><polygon class="cls-5" points="0 388.91 0 459.62 35.35 424.26 0 388.91"/><polygon class="cls-5" points="141.42 530.33 123.74 512.65 141.42 494.98 194.45 548.01 247.49 494.98 229.81 477.3 194.45 512.65 159.1 477.3 229.81 406.59 212.13 388.91 88.39 512.65 123.74 548.01 141.42 530.33"/><polygon class="cls-5" points="247.49 707.11 282.84 707.11 265.17 689.43 247.49 707.11"/><polygon class="cls-5" points="247.49 636.4 159.1 548.01 141.42 565.68 212.13 636.4 176.78 671.75 141.42 636.4 123.74 654.07 176.78 707.11 212.13 707.11 194.45 689.43 247.49 636.4"/><polygon class="cls-5" points="0 494.98 0 565.68 35.35 530.33 0 494.98"/><rect class="cls-5" x="93.57" y="606.22" width="25" height="25" transform="translate(-406.43 256.22) rotate(-45)"/><rect class="cls-5" x="22.86" y="570.86" width="25" height="25" transform="translate(-402.14 195.86) rotate(-45)"/><polygon class="cls-5" points="0 636.4 17.68 618.72 0 601.04 0 636.4"/><polygon class="cls-5" points="70.71 707.11 106.07 707.11 88.39 689.43 70.71 707.11"/><polygon class="cls-5" points="0 707.11 17.68 689.43 0 671.75 0 707.11"/><polygon class="cls-6" points="707.11 35.35 707.11 0 671.75 0 707.11 35.35"/><polygon class="cls-6" points="601.04 35.35 636.4 0 565.68 0 601.04 35.35"/><polygon class="cls-6" points="707.11 141.42 689.43 159.1 707.11 176.78 707.11 141.42"/><rect class="cls-6" x="510.51" y="93.57" width="75" height="25" transform="translate(85.51 418.57) rotate(-45)"/><polygon class="cls-6" points="424.26 35.35 406.59 53.03 424.26 70.71 459.62 35.35 424.26 0 388.91 0 424.26 35.35"/><rect class="cls-6" x="570.86" y="164.28" width="25" height="25" transform="translate(45.86 464.28) rotate(-45)"/><polygon class="cls-6" points="388.91 0 353.55 0 371.23 17.68 388.91 0"/><rect class="cls-6" x="623.9" y="227.67" width="25" height="75" transform="translate(-1.1 527.67) rotate(-45)"/><rect class="cls-6" x="526.67" y="128.29" width="25" height="150" transform="translate(14.17 440.79) rotate(-45)"/><rect class="cls-6" x="314.54" y="36.87" width="25" height="50" transform="translate(52.04 249.37) rotate(-45)"/><polygon class="cls-6" points="371.23 88.39 353.55 106.07 406.59 159.1 459.62 106.07 441.94 88.39 406.59 123.74 371.23 88.39"/><rect class="cls-6" x="668.09" y="390.43" width="25" height="50" transform="translate(-94.41 602.93) rotate(-45)"/><rect class="cls-6" x="500.15" y="245.34" width="25" height="75" transform="translate(-49.85 445.34) rotate(-45)"/><rect class="cls-6" x="553.19" y="323.38" width="25" height="25" transform="translate(-71.81 498.38) rotate(-45)"/><rect class="cls-6" x="243.83" y="36.87" width="25" height="50" transform="translate(31.33 199.37) rotate(-45)"/><rect class="cls-6" x="597.38" y="390.43" width="25" height="50" transform="translate(-115.12 552.93) rotate(-45)"/><rect class="cls-6" x="270.34" y="86.24" width="25" height="75" transform="translate(-4.66 236.24) rotate(-45)"/><rect class="cls-6" x="623.9" y="439.8" width="25" height="75" transform="translate(-151.1 589.8) rotate(-45)"/><polygon class="cls-6" points="212.13 141.42 229.81 123.74 176.78 70.71 123.74 123.74 106.07 106.07 88.39 123.74 106.07 141.42 70.71 176.78 88.39 194.45 176.78 106.07 212.13 141.42"/><polygon class="cls-6" points="565.68 494.98 583.36 477.3 530.33 424.26 477.3 477.3 459.62 459.62 441.94 477.3 459.62 494.98 424.26 530.33 441.94 548.01 530.33 459.62 565.68 494.98"/><rect class="cls-6" x="226.15" y="160.62" width="25" height="50" transform="translate(-61.35 223.12) rotate(-45)"/><rect class="cls-6" x="579.7" y="514.17" width="25" height="50" transform="translate(-207.8 576.67) rotate(-45)"/><polygon class="cls-6" points="0 35.35 35.35 0 0 0 0 35.35"/><rect class="cls-6" x="22.86" y="40.53" width="25" height="25" transform="translate(-27.14 40.53) rotate(-45)"/><rect class="cls-6" x="36.87" y="84.73" width="50" height="25" transform="translate(-50.63 72.23) rotate(-45)"/><rect class="cls-6" x="376.41" y="394.09" width="25" height="25" transform="translate(-173.59 394.09) rotate(-45)"/><polygon class="cls-6" points="671.75 671.75 707.11 636.4 689.43 618.72 601.04 707.11 636.4 707.11 654.07 689.43 671.75 707.11 707.11 707.11 671.75 671.75"/><rect class="cls-6" x="390.43" y="438.28" width="50" height="25" transform="translate(-197.07 425.78) rotate(-45)"/><rect class="cls-6" x="89.9" y="208.47" width="50" height="25" transform="translate(-122.6 145.97) rotate(-45)"/><rect class="cls-6" x="443.46" y="562.02" width="50" height="25" transform="translate(-269.04 499.52) rotate(-45)"/><polygon class="cls-6" points="300.52 335.88 353.55 388.91 441.94 300.52 424.26 282.84 353.55 353.55 318.2 318.2 353.55 282.84 335.88 265.17 247.49 353.55 194.45 300.52 176.78 318.2 247.49 388.91 300.52 335.88"/><polygon class="cls-6" points="548.01 654.07 530.33 671.75 565.68 707.11 601.04 707.11 548.01 654.07"/><polygon class="cls-6" points="0 176.78 17.68 159.1 0 141.42 0 176.78"/><rect class="cls-6" x="341.05" y="500.15" width="25" height="25" transform="translate(-258.95 400.15) rotate(-45)"/><rect class="cls-6" x="5.18" y="234.99" width="25" height="25" transform="translate(-169.82 84.99) rotate(-45)"/><rect class="cls-6" x="156.95" y="447.12" width="75" height="25" transform="translate(-268.05 272.12) rotate(-45)"/><rect class="cls-6" x="358.73" y="588.54" width="25" height="25" transform="translate(-316.27 438.54) rotate(-45)"/><polygon class="cls-6" points="477.3 618.72 459.62 601.04 441.94 618.72 424.26 601.04 388.91 636.4 406.59 654.07 353.55 707.11 424.26 707.11 406.59 689.43 477.3 618.72"/><rect class="cls-6" x="217.31" y="517.83" width="25" height="25" transform="translate(-307.69 317.83) rotate(-45)"/><polygon class="cls-6" points="53.03 406.59 70.71 424.26 106.07 388.91 53.03 335.88 123.74 265.17 106.07 247.49 88.39 265.17 70.71 247.49 35.35 282.84 53.03 300.52 0 353.55 17.68 371.23 35.35 353.55 70.71 388.91 53.03 406.59"/><rect class="cls-6" x="270.34" y="581.22" width="25" height="75" transform="translate(-354.66 381.22) rotate(-45)"/><polygon class="cls-6" points="53.03 477.3 17.68 441.94 0 459.62 53.03 512.65 106.07 459.62 88.39 441.94 53.03 477.3"/><rect class="cls-6" x="173.12" y="481.85" width="25" height="150" transform="translate(-339.38 294.35) rotate(-45)"/><rect class="cls-6" x="146.6" y="598.9" width="25" height="75" transform="translate(-403.4 298.9) rotate(-45)"/><rect class="cls-6" x="199.63" y="676.93" width="25" height="25" transform="translate(-425.37 351.93) rotate(-45)"/><polygon class="cls-6" points="0 707.11 35.35 707.11 88.39 654.07 70.71 636.4 0 707.11"/></g></g></svg>